# xmcd
#
# Track frame offsets: 
#        150
#        17182
#        37087
#        55938
#        80184
#        101209
#        126109
#        148578
#        165612
#        188312
#        202044
#        218331
#        240370
#        253284
#        270756
#        284642
#
# Disc length: 3918 seconds
#
# Revision: 0
# Processed by: cddbd v1.5.2PL0 Copyright (c) Steve Scherf et al.
# Submitted via: ExactAudioCopy v1.0b1
#
DISCID=e80f4c10
DTITLE=Pave Maijanen - Kaikki nämä vuodet 1981-2010 [CD2)
DYEAR=2010
DGENRE=Pop
TTITLE0=Sateella
TTITLE1=Ikävä
TTITLE2=Elämän nälkä
TTITLE3=Joki ja meri
TTITLE4=Kuokkavieras
TTITLE5=Hän tulee mun sänkyyn
TTITLE6=Esplanadi
TTITLE7=Halpaa bensaa
TTITLE8=Se ei voi
TTITLE9=Tanssivat kengät
TTITLE10=Pakko saada BMW
TTITLE11=Yhdet vielä
TTITLE12=Pidä huolta
TTITLE13=Ja sinä tulet
TTITLE14=Yhtenä yönä
TTITLE15=Lilja, ruusu ja kirsikkapuu
EXTD=
EXTT0=
EXTT1=
EXTT2=
EXTT3=
EXTT4=
EXTT5=
EXTT6=
EXTT7=
EXTT8=
EXTT9=
EXTT10=
EXTT11=
EXTT12=
EXTT13=
EXTT14=
EXTT15=
PLAYORDER=
